<svg xmlns="http://www.w3.org/2000/svg" viewBox="0 0 400 300">
<rect width="400" height="300" fill="#CFE1E4"/>
<g transform="translate(90 40) scale(1)" fill="#F6F4EE"><ellipse cx="0" cy="0" rx="26" ry="10"/><ellipse cx="-12" cy="-6" rx="13" ry="10"/><ellipse cx="9" cy="-9" rx="15" ry="12"/></g>
<g transform="translate(290 30) scale(0.8)" fill="#F6F4EE"><ellipse cx="0" cy="0" rx="26" ry="10"/><ellipse cx="-12" cy="-6" rx="13" ry="10"/><ellipse cx="9" cy="-9" rx="15" ry="12"/></g>
<path d="M200 60 q8 -8 16 0 q8 -8 16 0" stroke="#2B3A34" stroke-width="2" fill="none" stroke-linecap="round"/>
<rect y="110" width="400" height="80" fill="#6E9BAE"/>
<rect x="260" y="100" width="140" height="6" fill="#5D7285"/>
<rect x="264" y="106" width="3" height="18" fill="#5D7285"/>
<rect x="282" y="106" width="3" height="18" fill="#5D7285"/>
<rect x="300" y="106" width="3" height="18" fill="#5D7285"/>
<rect x="318" y="106" width="3" height="18" fill="#5D7285"/>
<rect x="336" y="106" width="3" height="18" fill="#5D7285"/>
<rect x="354" y="106" width="3" height="18" fill="#5D7285"/>
<rect x="372" y="106" width="3" height="18" fill="#5D7285"/>
<rect x="390" y="106" width="3" height="18" fill="#5D7285"/>
<path d="M372 100 V86 h20 V100 Z" fill="#F4EFE4"/><path d="M370 88 l12 -8 l12 8 z" fill="#B4644B"/>
<path d="M0 150 Q50 144 100 150 T200 150 T300 150 T400 150" stroke="#EEF3F1" stroke-width="2" fill="none" opacity="0.7"/>
<path d="M0 186 Q60 176 120 186 T240 184 T400 186 V192 H0 Z" fill="#EEF3F1"/>
<path d="M0 188 Q100 180 200 188 T400 186 V300 H0 Z" fill="#E9D3A6"/>
<g transform="translate(16 150)"><rect width="36" height="44" fill="#FAFAF6"/><rect x="0" width="5" height="44" fill="#D98C84"/><rect x="9" width="5" height="44" fill="#D98C84"/><rect x="18" width="5" height="44" fill="#D98C84"/><rect x="27" width="5" height="44" fill="#D98C84"/><path d="M-3 2 L18 -14 L39 2 Z" fill="#D98C84"/><rect x="12" y="20" width="12" height="24" fill="#2B3A34" opacity="0.6"/></g>
<g transform="translate(60 150)"><rect width="36" height="44" fill="#FAFAF6"/><rect x="0" width="5" height="44" fill="#6E9BAE"/><rect x="9" width="5" height="44" fill="#6E9BAE"/><rect x="18" width="5" height="44" fill="#6E9BAE"/><rect x="27" width="5" height="44" fill="#6E9BAE"/><path d="M-3 2 L18 -14 L39 2 Z" fill="#6E9BAE"/><rect x="12" y="20" width="12" height="24" fill="#2B3A34" opacity="0.6"/></g>
<g transform="translate(104 150)"><rect width="36" height="44" fill="#FAFAF6"/><rect x="0" width="5" height="44" fill="#E1AE48"/><rect x="9" width="5" height="44" fill="#E1AE48"/><rect x="18" width="5" height="44" fill="#E1AE48"/><rect x="27" width="5" height="44" fill="#E1AE48"/><path d="M-3 2 L18 -14 L39 2 Z" fill="#E1AE48"/><rect x="12" y="20" width="12" height="24" fill="#2B3A34" opacity="0.6"/></g>
<g transform="translate(148 150)"><rect width="36" height="44" fill="#FAFAF6"/><rect x="0" width="5" height="44" fill="#557A5B"/><rect x="9" width="5" height="44" fill="#557A5B"/><rect x="18" width="5" height="44" fill="#557A5B"/><rect x="27" width="5" height="44" fill="#557A5B"/><path d="M-3 2 L18 -14 L39 2 Z" fill="#557A5B"/><rect x="12" y="20" width="12" height="24" fill="#2B3A34" opacity="0.6"/></g>
<rect x="220" y="200" width="14" height="36" fill="#B4644B"/>
<rect x="234" y="200" width="14" height="36" fill="#FAFAF6"/>
<rect x="248" y="200" width="14" height="36" fill="#B4644B"/>
<rect x="262" y="200" width="14" height="36" fill="#FAFAF6"/>
<rect x="276" y="200" width="14" height="36" fill="#B4644B"/>
<path d="M300 262 v-18 h8 v-6 h6 v6 h8 v-6 h6 v6 h8 v18 z" fill="#D9BD88"/><path d="M318 238 v-14 l10 5 l-10 5" fill="#B4644B"/>
<g transform="translate(270 280) scale(1.05)">
  <ellipse cx="0" cy="1" rx="12" ry="2.5" fill="rgba(43,58,52,0.14)"/>
  <rect x="-8" y="-20" width="6" height="20" rx="3" fill="#6E9BAE"/><rect x="2" y="-20" width="6" height="20" rx="3" fill="#6E9BAE"/>
  <path d="M-11 -36 L-22 -28 M11 -36 L22 -28" stroke="#E1AE48" stroke-width="5" stroke-linecap="round"/>
  <path d="M-11 -18 Q-12 -42 0 -42 Q12 -42 11 -18 Z" fill="#E1AE48"/>
  <circle cx="0" cy="-50" r="9" fill="#C99670"/>
  <path d="M-9 -51 Q-9 -61 0 -61 Q9 -61 9 -51 Q5 -56 0 -56 Q-5 -56 -9 -51 Z" fill="#2C2320"/>
  
</g>
<path d="M292 262 l6 14 h10 l6 -14 z" fill="#2F4A66"/>
</svg>
