<svg xmlns="http://www.w3.org/2000/svg" viewBox="0 0 400 300">
  <rect width="400" height="300" fill="#7EC8F2"/>
  <ellipse cx="90" cy="230" rx="70" ry="22" fill="white"/><ellipse cx="130" cy="220" rx="50" ry="22" fill="white"/>
  <ellipse cx="320" cy="250" rx="80" ry="24" fill="white"/><ellipse cx="300" cy="80" rx="45" ry="16" fill="white"/>
  <ellipse cx="60" cy="70" rx="35" ry="12" fill="white"/>
  <g transform="rotate(-8 200 150)">
    <path d="M150 150 L110 95 H135 L195 145 Z" fill="#C8102E"/>
    <path d="M70 150 Q70 128 110 128 H300 Q345 128 350 150 Q345 172 300 172 H110 Q70 172 70 150 Z" fill="white" stroke="#9AA" stroke-width="2"/>
    <path d="M80 132 L60 100 H80 L110 130 Z" fill="#C8102E"/>
    <path d="M180 160 L140 215 H170 L230 165 Z" fill="#AAB4BE"/>
    <path d="M330 136 Q345 140 348 150 H322 Z" fill="#2E6DB4"/>
    <g fill="#2E6DB4"><circle cx="130" cy="145" r="6"/><circle cx="155" cy="145" r="6"/><circle cx="180" cy="145" r="6"/><circle cx="205" cy="145" r="6"/><circle cx="230" cy="145" r="6"/><circle cx="255" cy="145" r="6"/><circle cx="280" cy="145" r="6"/></g>
    <rect x="72" y="150" width="276" height="5" fill="#C8102E"/>
  </g>
</svg>
