<svg xmlns="http://www.w3.org/2000/svg" viewBox="0 0 400 300">
  <rect width="400" height="300" fill="#B7C9D9"/>
  <g><rect x="30" y="110" width="110" height="90" fill="#B8553A"/><polygon points="20,112 85,60 150,112" fill="white"/><rect x="72" y="150" width="26" height="50" fill="#2E5E8C"/><rect x="40" y="130" width="24" height="22" fill="#FFE8A0"/><rect x="108" y="130" width="24" height="22" fill="#FFE8A0"/></g>
  <g><rect x="170" y="125" width="90" height="75" fill="#D9B27C"/><polygon points="160,127 215,82 270,127" fill="white"/><rect x="205" y="160" width="22" height="40" fill="#7A3E00"/><rect x="178" y="140" width="20" height="18" fill="#FFE8A0"/></g>
  <path d="M0 195 Q200 180 400 195 V300 H0 Z" fill="white"/>
  <g>
    <circle cx="320" cy="245" r="32" fill="white" stroke="#DDE" stroke-width="2"/>
    <circle cx="320" cy="195" r="22" fill="white" stroke="#DDE" stroke-width="2"/>
    <circle cx="313" cy="190" r="3" fill="#222"/><circle cx="327" cy="190" r="3" fill="#222"/>
    <path d="M320 196 l14 4 l-14 3 z" fill="#F28C28"/>
    <rect x="300" y="170" width="40" height="6" fill="#222"/><rect x="308" y="150" width="24" height="22" fill="#222"/>
    <rect x="300" y="212" width="40" height="8" fill="#C8102E"/>
    <g fill="#222"><circle cx="320" cy="235" r="3"/><circle cx="320" cy="250" r="3"/></g>
  </g>
  <g><path d="M90 262 h90 q10 0 10 -10" fill="none" stroke="#C8102E" stroke-width="5"/><rect x="95" y="250" width="80" height="8" fill="#7A5230"/>
    <circle cx="135" cy="226" r="11" fill="#F2C9A0"/><rect x="124" y="214" width="22" height="7" fill="#2F8F5B"/><rect x="124" y="237" width="22" height="14" rx="4" fill="#2E6DB4"/></g>
  <g fill="white"><circle cx="40" cy="40" r="4"/><circle cx="120" cy="25" r="3"/><circle cx="200" cy="50" r="4"/><circle cx="280" cy="30" r="3"/><circle cx="360" cy="60" r="4"/><circle cx="330" cy="120" r="3"/><circle cx="160" cy="90" r="3"/><circle cx="60" cy="80" r="3"/><circle cx="240" cy="100" r="4"/></g>
</svg>
