<svg xmlns="http://www.w3.org/2000/svg" viewBox="0 0 400 300">
  <rect width="400" height="300" fill="#BFE3F5"/>
  <path d="M0 30 Q50 50 100 30 T200 30 T300 30 T400 30" fill="none" stroke="#555" stroke-width="2"/>
  <g><path d="M20 38 l10 18 l10 -18z" fill="#E5534B"/><path d="M70 45 l10 18 l10 -18z" fill="#3B6FD6"/><path d="M120 38 l10 18 l10 -18z" fill="#F2D23B"/><path d="M170 32 l10 18 l10 -18z" fill="#2F8F5B"/><path d="M220 38 l10 18 l10 -18z" fill="#E5534B"/><path d="M270 45 l10 18 l10 -18z" fill="#3B6FD6"/><path d="M320 38 l10 18 l10 -18z" fill="#F2D23B"/><path d="M370 32 l10 18 l10 -18z" fill="#2F8F5B"/></g>
  <rect y="120" width="400" height="180" fill="#5DAA4B"/>
  <rect y="150" width="400" height="130" fill="#C8553D"/>
  <g stroke="white" stroke-width="3"><line x1="0" y1="182" x2="400" y2="182"/><line x1="0" y1="214" x2="400" y2="214"/><line x1="0" y1="246" x2="400" y2="246"/></g>
  <line x1="340" y1="140" x2="340" y2="285" stroke="#EEE" stroke-width="5"/>
  <line x1="340" y1="175" x2="340" y2="260" stroke="white" stroke-width="3" stroke-dasharray="6 4"/>
  <g>
    <circle cx="290" cy="150" r="11" fill="#F2C9A0"/><rect x="280" y="161" width="20" height="24" rx="5" fill="#F2D23B"/>
    <line x1="284" y1="185" x2="274" y2="202" stroke="#F2C9A0" stroke-width="6" stroke-linecap="round"/><line x1="296" y1="185" x2="308" y2="198" stroke="#F2C9A0" stroke-width="6" stroke-linecap="round"/>
  </g>
  <g>
    <circle cx="230" cy="182" r="11" fill="#8D5A3B"/><rect x="220" y="193" width="20" height="24" rx="5" fill="#3B6FD6"/>
    <line x1="224" y1="217" x2="214" y2="234" stroke="#8D5A3B" stroke-width="6" stroke-linecap="round"/><line x1="236" y1="217" x2="248" y2="230" stroke="#8D5A3B" stroke-width="6" stroke-linecap="round"/>
  </g>
  <g>
    <circle cx="170" cy="214" r="11" fill="#F2C9A0"/><rect x="160" y="225" width="20" height="24" rx="5" fill="#E5534B"/>
    <line x1="164" y1="249" x2="154" y2="266" stroke="#F2C9A0" stroke-width="6" stroke-linecap="round"/><line x1="176" y1="249" x2="188" y2="262" stroke="#F2C9A0" stroke-width="6" stroke-linecap="round"/>
  </g>
  <g><rect x="40" y="80" width="80" height="40" fill="#F2F2F2" stroke="#999"/><rect x="60" y="100" width="12" height="20" fill="#999"/><circle cx="90" cy="95" r="8" fill="#F2C9A0"/></g>
</svg>
